<?xml version="1.0" standalone="no"?>
<!DOCTYPE svg PUBLIC "-//W3C//DTD SVG 20010904//EN"
 "http://www.w3.org/TR/2001/REC-SVG-20010904/DTD/svg10.dtd">
<svg version="1.0" xmlns="http://www.w3.org/2000/svg"
 width="100.000000pt" height="100.000000pt" viewBox="0 0 100.000000 100.000000"
 preserveAspectRatio="xMidYMid meet">

<g transform="translate(0.000000,100.000000) scale(0.100000,-0.100000)"
fill="#000000" stroke="none">
<path d="M448 863 c-16 -4 -18 -18 -18 -119 0 -63 -3 -114 -6 -114 -3 0 -22
14 -43 30 -30 24 -46 30 -76 28 -21 -2 -40 -9 -43 -16 -2 -7 35 -50 83 -95
l88 -83 -87 -79 c-85 -78 -98 -99 -74 -123 22 -22 49 -13 101 33 l52 45 5
-132 c3 -73 9 -139 13 -145 20 -31 55 -11 175 98 67 61 122 118 122 127 0 10
-33 46 -73 80 -111 97 -111 88 -12 178 47 43 85 84 85 92 0 8 -12 23 -26 34
-14 12 -64 54 -112 94 -85 73 -102 81 -154 67z m176 -194 c-3 -5 0 -9 7 -9 7
0 0 -14 -16 -30 -16 -17 -35 -28 -41 -26 -7 3 -20 -2 -31 -9 -10 -8 -13 -15
-7 -15 5 0 15 4 22 10 7 5 6 3 -2 -6 -26 -30 -36 -6 -36 92 l0 96 55 -47 c30
-26 52 -51 49 -56z m-184 -59 c0 -5 -5 -10 -11 -10 -5 0 -7 5 -4 10 3 6 8 10
11 10 2 0 4 -4 4 -10z m140 -244 c49 -44 48 -49 -18 -104 l-42 -35 0 93 c0 50
4 90 9 88 5 -1 28 -21 51 -42z"/>
</g>
</svg>
